<svg xmlns="http://www.w3.org/2000/svg" width="352.326" height="352.327" style="enable-background:new 0 0 352.326 352.327" xml:space="preserve"><path d="M204.994 193.713c-4.475 0-8.194 1.516-10.757 4.385-2.3 2.571-3.564 6.068-3.564 9.847 0 6.939 4.532 14.41 14.482 14.41 4.474 0 8.194-1.516 10.757-4.386 2.298-2.571 3.562-6.067 3.562-9.846.001-6.94-4.531-14.41-14.48-14.41zM147.903 158.913c4.487 0 8.217-1.513 10.787-4.373 2.3-2.562 3.567-6.045 3.567-9.808 0-6.918-4.542-14.363-14.517-14.363-10.17 0-14.722 7.124-14.722 14.183 0 6.917 4.658 14.361 14.885 14.361z"/><path d="M176.164 62.745c-62.539 0-113.418 50.879-113.418 113.418 0 62.539 50.879 113.418 113.418 113.418s113.418-50.879 113.418-113.418c0-62.539-50.879-113.418-113.418-113.418zm-49.092 63.565c5.051-5.505 12.198-8.415 20.668-8.415 18.203 0 27.728 13.497 27.728 26.828 0 7.001-2.477 13.542-6.973 18.419-5.073 5.501-12.25 8.41-20.755 8.41-18.122 0-27.604-13.497-27.604-26.829 0-6.998 2.463-13.537 6.936-18.413zm17.024 95.98c-1.101 1.229-3.351 2.234-5.001 2.234h-11.697c-1.65 0-2.097-1.004-.994-2.229l82.535-91.765c1.104-1.227 3.355-2.255 5.006-2.285l11.584-.212c1.649-.03 2.099.951.998 2.18l-82.431 92.077zm81.258 3.892c-4.977 5.396-12.018 8.25-20.359 8.25-17.778 0-27.08-13.239-27.08-26.316 0-6.865 2.417-13.28 6.805-18.063 4.955-5.399 11.965-8.255 20.274-8.255 17.856 0 27.198 13.24 27.198 26.317 0 6.866-2.428 13.282-6.838 18.067z"/><path d="M322.759 223.797c5.22-16.073 29.567-29.82 29.567-47.634s-24.348-31.562-29.567-47.635c-5.409-16.659 6.021-42.056-4.07-55.922-10.192-14.005-37.947-10.933-51.952-21.125-13.867-10.092-19.465-37.492-36.125-42.901-16.073-5.219-36.636 13.487-54.449 13.487-17.814 0-38.376-18.707-54.45-13.487-16.659 5.409-22.256 32.81-36.123 42.901-14.005 10.192-41.759 7.12-51.952 21.125-10.091 13.867 1.338 39.264-4.071 55.923C24.348 144.602 0 158.35 0 176.164c0 17.812 24.348 31.561 29.567 47.635 5.409 16.659-6.021 42.056 4.071 55.922 10.192 14.005 37.947 10.934 51.952 21.125 13.866 10.092 19.464 37.492 36.124 42.901 16.073 5.219 36.635-13.488 54.449-13.488 17.813 0 38.376 18.707 54.45 13.487 16.659-5.409 22.256-32.811 36.123-42.901 14.005-10.191 41.759-7.12 51.952-21.125 10.092-13.867-1.338-39.263 4.071-55.923zm-146.595 82.785c-71.913 0-130.418-58.505-130.418-130.418 0-71.914 58.505-130.418 130.418-130.418s130.418 58.505 130.418 130.418c0 71.913-58.505 130.418-130.418 130.418z"/></svg>