<svg xmlns="http://www.w3.org/2000/svg" viewBox="0 0 423.137 423.137" style="enable-background:new 0 0 423.137 423.137" xml:space="preserve"><path d="M323.823 189.154c0-19.335-15.73-35.066-35.066-35.066s-35.066 15.73-35.066 35.066 15.73 35.066 35.066 35.066 35.066-15.73 35.066-35.066zm-55.131 0c0-11.064 9.001-20.066 20.066-20.066s20.066 9.001 20.066 20.066-9.001 20.066-20.066 20.066-20.066-9.001-20.066-20.066z"/><path d="M387.81 0H72.431c-2.306 0-4.571.176-6.784.515-21.387 3.277-37.82 21.8-37.82 44.088v333.931c0 24.594 20.009 44.603 44.604 44.603h72.52c10.085 0 19.395-3.368 26.875-9.033.325-.213.632-.461.928-.73a44.793 44.793 0 0 0 13.891-19.017H387.81a7.5 7.5 0 0 0 7.5-7.5V7.5a7.5 7.5 0 0 0-7.5-7.5zM77.609 74.207c1.001-6.05 3.844-11.622 8.268-16.041 5.583-5.591 13.013-8.669 20.923-8.669h67.343c-2.34 14.002-14.536 24.71-29.192 24.71H77.609zM72.431 15h72.52c1.53 0 3.034.117 4.502.342 10.79 1.653 19.679 9.154 23.323 19.155H106.8c-11.92 0-23.12 4.642-31.53 13.063-6.862 6.853-11.213 15.554-12.593 24.989-11.544-4.041-19.85-15.038-19.85-27.945C42.827 28.28 56.108 15 72.431 15zM42.827 77.927c7.882 7.01 18.251 11.279 29.604 11.279h14.72l65.772 65.771L42.827 265.073V77.927zm131.727 300.607c0 7.124-2.53 13.668-6.739 18.781l-67.313-67.313a7.5 7.5 0 0 0-10.606 0 7.5 7.5 0 0 0 0 10.606l65.585 65.585a29.442 29.442 0 0 1-10.531 1.943H72.43c-16.323 0-29.604-13.28-29.604-29.603V293.54l19.07 19.07c1.464 1.464 3.384 2.197 5.303 2.197s3.839-.732 5.303-2.197a7.5 7.5 0 0 0 0-10.606l-22.697-22.697L83.7 245.413l90.854 90.854v42.267zm0-110.498a5.521 5.521 0 0 0 0 .182v46.836l-80.248-80.248 69.222-69.222 11.025 11.025v91.427zm0-112.639-66.191-66.19h36.587c11.352 0 21.722-4.27 29.604-11.28v77.47zM178.275 15h84.946l-73.667 73.672V44.603c0-11.352-4.269-21.721-11.279-29.603zm64.885 207.292c-16.401-22.569-13.988-53.268 5.74-72.996 10.989-10.989 25.423-16.483 39.858-16.483s28.869 5.495 39.858 16.483c19.728 19.728 22.142 50.427 5.74 72.996l-45.598 62.742-45.598-62.742zm21.87 55.607-75.475 75.467v-82.139l40.914-40.922c.188.267.366.54.558.805l34.003 46.789zM238.293 138.69a71.423 71.423 0 0 0-20.683 44.87 71.418 71.418 0 0 0 5.305 33.086l-33.361 33.367V109.88l11.989-11.983 38.823 38.823a72.32 72.32 0 0 0-2.073 1.97zm-48.739 240.667v-4.778l84.404-84.395 8.733 12.016a7.5 7.5 0 0 0 12.134 0l6.916-9.516 52.234 52.24-34.441 34.433h-129.98zm190.756 0h-39.56l23.831-23.826 15.729 15.731v8.095zm0-29.31-69.641-69.648 30.883-42.494 38.758 38.758v73.384zm0-94.597-30.072-30.072a71.428 71.428 0 0 0 9.668-41.818 71.424 71.424 0 0 0-20.684-44.87 71.524 71.524 0 0 0-6.526-5.752l47.614-47.614V255.45zm0-191.34-60.701 60.702c-21.272-10.175-46.572-9.234-67.087 2.85l-40.37-40.37L284.434 15h95.876v49.11z"/><path d="M79.482 313.706c-1.429.305-2.805.996-3.83 2.05-2.925 2.843-2.862 7.75 0 10.6 2.862 2.851 7.749 2.933 10.6 0 2.896-2.815 2.901-7.784 0-10.6-1.712-1.764-4.374-2.544-6.77-2.05-.47.1.97-.2 0 0z"/></svg>