<svg xmlns="http://www.w3.org/2000/svg" viewBox="0 0 213.195 213.195" style="enable-background:new 0 0 213.195 213.195" xml:space="preserve"><path d="m210.856 203.383-25.689-79.277a7.5 7.5 0 0 0-7.135-5.188h-18.135c8.12-14.714 13.953-32.089 13.953-51.658C173.85 30.173 143.68 0 106.596 0c-37.081 0-67.25 30.173-67.25 67.26 0 19.569 5.833 36.944 13.952 51.658H35.164a7.5 7.5 0 0 0-7.135 5.188L2.34 203.383a7.5 7.5 0 0 0 7.135 9.812h194.246a7.5 7.5 0 0 0 7.135-9.812zM106.596 15c28.813 0 52.254 23.444 52.254 52.26 0 46.04-39.284 79.696-52.262 89.557-12.988-9.834-52.242-43.384-52.242-89.557 0-28.816 23.439-52.26 52.25-52.26zM19.789 198.195l20.829-64.277h22.295c17.32 23.623 38.092 37.444 39.58 38.417a7.492 7.492 0 0 0 4.104 1.222 7.492 7.492 0 0 0 4.104-1.222c1.486-.972 22.261-14.794 39.582-38.417h22.297l20.828 64.277H19.789z"/></svg>