<svg xmlns="http://www.w3.org/2000/svg" viewBox="0 0 432.336 432.336" style="enable-background:new 0 0 432.336 432.336" xml:space="preserve"><path d="M93.331 248.276a7.97 7.97 0 0 1-4.999 1.758 7.982 7.982 0 0 1-6.247-2.996l-1.099-1.371a7.965 7.965 0 0 1-1.758-4.993 8.003 8.003 0 0 1 14.243-5.015l1.099 1.371a7.996 7.996 0 0 1-1.239 11.246zm22.745 41.179a7.984 7.984 0 0 0 6.251 3.002 7.965 7.965 0 0 0 4.994-1.754 7.986 7.986 0 0 0 3.002-6.25 7.965 7.965 0 0 0-1.754-4.994l-1.097-1.371a8 8 0 0 0-14.247 5.002c0 1.753.573 3.519 1.754 4.994l1.097 1.371zm-3.194-37.314a7.967 7.967 0 0 0 5.004-1.762 7.986 7.986 0 0 0 2.992-6.255 7.963 7.963 0 0 0-1.763-4.992l-1.1-1.37a8 8 0 0 0-12.477 10.018l1.1 1.37a7.988 7.988 0 0 0 6.244 2.991zm-20.276 21.762a7.984 7.984 0 0 0 6.245 2.994 7.965 7.965 0 0 0 5.001-1.76 7.988 7.988 0 0 0 2.995-6.254 7.968 7.968 0 0 0-1.76-4.992l-1.099-1.37a8.002 8.002 0 0 0-14.241 5.02 7.968 7.968 0 0 0 1.76 4.992l1.099 1.37zM6.904 189.391c-10.859-13.552-8.669-33.412 4.882-44.272a31.44 31.44 0 0 1 23.202-6.74 31.454 31.454 0 0 1 11.631-21.176c13.552-10.86 33.413-8.672 44.273 4.881 9.132 11.396 9.036 27.252.718 38.467l14.114 17.611 6.343-5.083a8.007 8.007 0 0 1 6.21-1.666 77.864 77.864 0 0 1 9.397 2.045 7.999 7.999 0 0 1 5.524 9.873c-1.201 4.251-5.621 6.729-9.874 5.523a63.027 63.027 0 0 0-4.096-1.011l-54.316 43.528c-.096 8.868 1.733 18.219 5.351 27.258a7.999 7.999 0 0 1-4.455 10.399 7.963 7.963 0 0 1-2.97.575 8.004 8.004 0 0 1-7.43-5.029c-4.974-12.428-7.162-25.468-6.325-37.711a8 8 0 0 1 2.979-5.698l6.342-5.082-14.114-17.612c-12.759 5.676-28.254 2.313-37.386-9.08zm34.267-7.606a7.965 7.965 0 0 1 4.998-1.757 7.986 7.986 0 0 1 6.248 2.997l18.474 23.052 22.349-17.91-18.474-23.051a8.002 8.002 0 0 1 1.24-11.245c6.667-5.344 7.745-15.115 2.401-21.782-5.343-6.666-15.114-7.746-21.781-2.401a15.464 15.464 0 0 0-4.831 17.511 7.999 7.999 0 0 1-2.491 9.042 7.997 7.997 0 0 1-9.368.462 15.472 15.472 0 0 0-18.144.901c-6.667 5.343-7.745 15.114-2.403 21.781 5.344 6.666 15.115 7.745 21.782 2.4zm130.878 13.611v13.847a8 8 0 0 0 16 0v-13.847a8 8 0 0 0-16 0zm89.825 5.592c-5.833-4.487-11.953-6.813-18.191-6.916a3.815 3.815 0 0 0-.262 0c-10.593.174-21.133 7.024-29.678 19.29-12.894 18.507-21.496 49.931-12.989 74.18a8.003 8.003 0 0 0 7.549 5.354 8 8 0 0 0 7.549-10.65c-6.414-18.284.566-44.731 11.02-59.737 5.401-7.753 11.473-12.276 16.682-12.435 2.687.081 5.568 1.29 8.565 3.597a8.001 8.001 0 0 0 9.755-12.683zm55.959 83.815a7.992 7.992 0 0 0 8.188-7.808c.559-23.419-7.272-49.901-26.028-56.272a8.038 8.038 0 0 0-.25-.08c-8.379-2.541-18.031-.796-27.905 5.051-18.53 10.973-35.347 34.982-39.988 57.089a8.001 8.001 0 0 0 15.659 3.288c3.741-17.821 17.705-37.858 32.481-46.609 5.763-3.413 11.076-4.67 14.98-3.544 9.069 3.218 15.534 20.665 15.056 40.698a8 8 0 0 0 7.807 8.187zM79.386 98.156a7.964 7.964 0 0 0 3.486.805 8 8 0 0 0 7.203-4.51c.328-.676 4.291-10.84 4.634-11.625 18.757-35.931 54.69-59.748 98.609-65.353 45.783-5.839 91.697 9.912 119.827 41.116a8 8 0 1 0 11.883-10.713c-16.06-17.815-37.276-31.448-61.354-39.425-22.933-7.598-47.961-9.964-72.382-6.85C142.04 7.887 101.638 34.85 80.444 75.579c-.403.775-4.561 11.412-4.809 11.985a7.998 7.998 0 0 0 3.751 10.592zm166.264 69.3a8 8 0 1 1-11.617 11.002c-2.856-3.015-6.49-5.038-10.508-5.849a7.999 7.999 0 0 1-6.417-7.842v-10.361h-35.231v10.361a8 8 0 0 1-6.417 7.842c-9.25 1.866-15.962 10.058-15.962 19.477v90.376a8 8 0 0 1-16 0v-90.376c0-14.737 9.094-27.808 22.38-33.225v-8.751c-3.809-3.271-6.227-8.12-6.227-13.522v-10.549c0-9.824 7.993-17.817 17.818-17.817h44.049c9.825 0 17.817 7.993 17.817 17.817v10.549c0 5.403-2.417 10.252-6.227 13.522v8.747a35.872 35.872 0 0 1 12.542 8.599zm-22.314-41.417c0-.985-.832-1.817-1.817-1.817H177.47c-.986 0-1.818.832-1.818 1.817v10.549c0 .745.477 1.403 1.135 1.68l.069.027c.193.072.4.111.614.111h44.049a1.751 1.751 0 0 0 .696-.143c.651-.279 1.122-.935 1.122-1.675v-10.549zm172.553 161.388c-.412 17.946-12.053 41.004-31.938 63.26-19.352 21.659-44.253 40.287-70.568 52.86v20.52a8 8 0 0 1-8 8H139.264a8 8 0 0 1-8-8v-20.52c-26.315-12.573-51.217-31.201-70.568-52.86-19.886-22.256-31.527-45.313-31.939-63.26a8.002 8.002 0 0 1 4.488-7.373 8.002 8.002 0 0 1 8.574.996c3.474 2.842 16.398 10.032 61.255 15.423 30.408 3.654 69.207 5.667 109.25 5.667s78.842-2.013 109.249-5.667c44.856-5.391 57.78-12.581 61.254-15.422a8.004 8.004 0 0 1 8.574-.997 8.002 8.002 0 0 1 4.488 7.373zM277.382 406.434H147.264v9.633h130.118v-9.633zm99.393-104.759c-44.46 15.568-142.67 16.465-164.452 16.465-21.782 0-119.992-.896-164.453-16.465 2.59 7.022 6.727 14.653 12.167 22.48.14.152.275.311.406.477 1.163 1.477 3.644 3.953 7.199 3.953 3.164 0 6.171-1.997 8.25-5.479a8 8 0 0 1 13.738 8.201c-3.428 5.742-8.408 9.886-14.062 11.9 5.831 6.223 12.354 12.363 19.453 18.223a8.002 8.002 0 0 1 12.873 9.392c-.063.106-.127.212-.192.317 10.286 7.294 21.477 13.885 33.288 19.295h142.666c11.083-5.077 21.62-11.192 31.375-17.954a32.48 32.48 0 0 1-1.062-1.657 8 8 0 1 1 13.734-8.209c.051.087.104.172.157.257 7.821-6.319 14.975-12.992 21.307-19.76-5.543-2.048-10.421-6.151-13.796-11.803a8 8 0 0 1 13.737-8.203c2.08 3.482 5.086 5.48 8.249 5.48 2.613 0 4.634-1.342 5.929-2.559 6.094-8.48 10.693-16.771 13.489-24.351zm8.536-187.446a8 8 0 0 0-10.957 2.818l-1.016 1.718a8 8 0 0 0 6.88 12.071 7.994 7.994 0 0 0 6.895-3.931l1.016-1.719a8 8 0 0 0-2.818-10.957zm-21.943 15.546a8.001 8.001 0 0 0-10.951 2.844l-1.011 1.72a7.997 7.997 0 0 0 2.844 10.951 7.998 7.998 0 0 0 10.951-2.843l1.011-1.72a8 8 0 0 0-2.844-10.952zm3.012-26.706a8 8 0 0 0-10.957 2.821l-1.014 1.718a7.999 7.999 0 0 0 2.822 10.956 7.995 7.995 0 0 0 10.956-2.822l1.014-1.718a7.995 7.995 0 0 0-2.821-10.955zm65.558 31.116c-9.695 29.553-24.625 61.808-43.175 93.276-7.909 13.415-16.314 26.413-24.982 38.635a7.991 7.991 0 0 1-6.532 3.373 7.958 7.958 0 0 1-4.621-1.476 7.999 7.999 0 0 1-1.897-11.153c8.41-11.857 16.568-24.476 24.25-37.504 15.101-25.617 27.706-51.712 36.89-76.286a97.833 97.833 0 0 0-6.776 2.813 8.008 8.008 0 0 1-.787.363c-22.152 10.339-49.991 31.832-77.657 60.467a574.569 574.569 0 0 1-2.457 6.97 7.996 7.996 0 0 1-10.236 4.819 8 8 0 0 1-4.82-10.235 550.323 550.323 0 0 0 3.012-8.595c13.536-39.688 20.802-76.142 20.542-101.726a8.105 8.105 0 0 1-.013-.922c-.009-.511-.021-1.018-.036-1.52-15.835 19.663-31.467 42.416-45.781 66.694a614.806 614.806 0 0 0-12.399 22.051 7.999 7.999 0 0 1-10.829 3.277 8 8 0 0 1-3.278-10.828 632.612 632.612 0 0 1 12.723-22.626c18.304-31.047 38.756-59.726 59.144-82.934A8.003 8.003 0 0 1 345.98 74.4a72.006 72.006 0 0 1 1.278 6.072c23.355-19.767 42.517-26.052 55.894-18.165 17.211 10.146 15.885 37.751 9.917 63.566 3.618-1.036 7.073-1.751 10.346-2.13 2.708-.316 5.394.774 7.119 2.888s2.254 4.961 1.404 7.554zm-36.911-58.094c-5.957-3.512-21.601.973-46.374 24.666-.198 20.394-4.349 45.842-12.092 74.036 20.555-18.622 40.502-32.876 58.088-41.592 9.638-33.883 7.236-53.066.378-57.11zM387.181 89.4a8 8 0 0 0-10.954 2.831l-1.013 1.719a8 8 0 0 0 6.884 12.062 7.995 7.995 0 0 0 6.9-3.939l1.013-1.719a7.994 7.994 0 0 0-2.83-10.954zM142.707 337.562a8 8 0 0 0-13.737-8.203c-2.08 3.482-5.086 5.479-8.25 5.479-3.163 0-6.168-1.997-8.247-5.479a8 8 0 0 0-13.738 8.201c4.963 8.313 13.182 13.277 21.985 13.277 8.803.001 17.022-4.962 21.987-13.275zm60.14.001a8 8 0 0 0-13.737-8.205c-2.081 3.482-5.087 5.48-8.25 5.48-3.163 0-6.169-1.997-8.249-5.479a8 8 0 0 0-13.737 8.203c4.965 8.313 13.184 13.276 21.986 13.276 8.802 0 17.021-4.963 21.987-13.275zm98.292 13.275c8.803 0 17.023-4.963 21.987-13.276a8 8 0 0 0-13.737-8.203c-2.08 3.482-5.086 5.479-8.25 5.479-3.163 0-6.169-1.997-8.249-5.479a8 8 0 1 0-13.737 8.203c4.965 8.313 13.184 13.276 21.986 13.276zM167.64 359.85a8 8 0 0 0-10.97 2.766c-2.081 3.482-5.088 5.48-8.251 5.48-3.162 0-6.168-1.998-8.25-5.48a8 8 0 1 0-13.736 8.205c4.966 8.313 13.185 13.275 21.985 13.275 8.802 0 17.021-4.963 21.987-13.275a7.999 7.999 0 0 0-2.765-10.971zm35.041 2.766a8 8 0 0 0-13.737 8.203c4.965 8.313 13.184 13.276 21.986 13.276 8.804 0 17.023-4.963 21.987-13.276a8.002 8.002 0 0 0-2.767-10.971 8.003 8.003 0 0 0-10.97 2.768c-2.079 3.482-5.086 5.479-8.25 5.479-3.163.001-6.17-1.996-8.249-5.479zm38.318-11.778c8.803 0 17.023-4.963 21.988-13.276a8 8 0 0 0-13.737-8.203c-2.08 3.482-5.087 5.479-8.25 5.479-3.163 0-6.169-1.997-8.249-5.479a8 8 0 0 0-13.737 8.203c4.964 8.313 13.182 13.276 21.985 13.276zm13.222 9.012a8 8 0 0 0-2.767 10.97c4.965 8.313 13.184 13.276 21.986 13.276 8.802 0 17.021-4.963 21.987-13.275a8 8 0 0 0-13.736-8.205c-2.081 3.482-5.088 5.48-8.251 5.48s-6.169-1.997-8.249-5.479a7.998 7.998 0 0 0-10.97-2.767z"/></svg>